<svg xmlns="http://www.w3.org/2000/svg" xmlns:xlink="http://www.w3.org/1999/xlink" version="1.1" x="0px" y="0px" viewBox="0 0 100 102.96625" enable-background="new 0 0 100 82.373" xml:space="preserve"><path d="M80.646,23.092c-3.642-4.622-8.345-8.065-13.71-9.283c-5.531-1.256-9.911,5.11-15.211,6.421  c0.708-2.348-0.476-7.674-1.126-9.719c-1.145-3.598-3.295-6.925-5.192-6.321c-1.896,0.603-1.729,4.561-0.585,8.159  c0.588,1.848,2.369,6.135,4.135,8.056c-5.813-0.731-10.29-8.029-16.403-6.448c-5.193,1.343-9.766,4.712-13.338,9.181  C10.972,25.833,5,33.595,5,42.727c0,7.165,3.676,13.486,9.241,17.179c3.783,8.589,10.663,15.755,18.47,18.072  c5.564,1.651,10.961-6.119,17.171-6.119c6.163,0,11.515,7.767,17.054,6.182c8.5-2.434,15.204-9.557,18.79-18.112  C91.309,56.239,95,49.907,95,42.727C95,33.544,88.96,25.746,80.646,23.092z M63.467,15.117c0.59-0.273,1.189-0.238,1.336,0.08  c0.255,0.548-0.522,0.742-1.269,0.855c-0.644,0.098-1.473,0.417-1.473,0.417S62.877,15.391,63.467,15.117z M45.958,11.988  c-1.256-3.95-0.785-6.473-0.189-6.663c0.595-0.189,2.438,1.598,3.694,5.547c1.288,4.046,1.569,8.66,1.028,9.299  C49.68,19.962,47.245,16.034,45.958,11.988z M35.197,20.583c0,0.654-0.53,1.184-1.184,1.184c-0.653,0-1.184-0.53-1.184-1.184  s0.531-1.184,1.184-1.184C34.667,19.398,35.197,19.928,35.197,20.583z M31.355,17.459c1.316-0.684,2.659-0.708,2.999-0.053  c0.34,0.654-0.718,1.952-3.136,1.929c-1.483-0.014-3.382,1.456-3.382,1.456S30.039,18.143,31.355,17.459z M44.773,43.366  c-0.339,10.283-8.804,18.546-19.168,18.546c-4.713,0-9.032-1.712-12.376-4.542c-4.16-3.521-6.808-8.777-6.808-14.643  c0-7.733,4.602-14.408,11.21-17.441c2.43-1.116,5.129-1.743,7.974-1.743c9.7,0,17.736,7.238,19.005,16.595  c0.115,0.848,0.18,1.711,0.18,2.589C44.79,42.941,44.781,43.153,44.773,43.366z M53.793,42.445c-1.135-0.588-2.432-0.923-3.81-0.923  c-1.365,0-2.649,0.329-3.776,0.906c-0.015-1.09-0.116-2.16-0.295-3.204c1.195-0.676,2.586-1.064,4.071-1.064  c1.498,0,2.9,0.396,4.103,1.082C53.907,40.285,53.808,41.355,53.793,42.445z M86.657,57.468c-3.327,2.772-7.603,4.444-12.263,4.444  c-10.354,0-18.814-8.247-19.167-18.517c-0.008-0.222-0.018-0.444-0.018-0.667c0-0.869,0.064-1.723,0.177-2.563  c1.257-9.37,9.299-16.622,19.008-16.622c2.771,0,5.404,0.595,7.785,1.657c6.709,2.991,11.399,9.72,11.399,17.527  C93.579,48.646,90.884,53.946,86.657,57.468z M42.066,43.971c0,5.396-2.413,9.77-5.388,9.77s-5.388-4.374-5.388-9.77  c0-5.396,2.412-9.77,5.388-9.77S42.066,38.575,42.066,43.971z M68.829,43.971c0,5.396-2.412,9.77-5.388,9.77  c-2.976,0-5.388-4.374-5.388-9.77c0-5.396,2.413-9.77,5.388-9.77C66.417,34.201,68.829,38.575,68.829,43.971z"/><text x="0" y="97.373" fill="#000000" font-size="5px" font-weight="bold" font-family="'Helvetica Neue', Helvetica, Arial-Unicode, Arial, Sans-serif">Created by Jessica Scales</text><text x="0" y="102.373" fill="#000000" font-size="5px" font-weight="bold" font-family="'Helvetica Neue', Helvetica, Arial-Unicode, Arial, Sans-serif">from the Noun Project</text></svg>